/vscmnt/brussel_pixiu_data/_data_brussel/112/vsc11236/PredSimResults/SUBJ10opt3D/SUBJ10opt3D_12158438.mot
version=1
nRows=4
nColumns=50
inDegrees=yes
endheader
                time	         pelvis_tilt	         pelvis_list	     pelvis_rotation	           pelvis_tx	           pelvis_ty	           pelvis_tz	       hip_flexion_r	     hip_adduction_r	      hip_rotation_r	        knee_angle_r	       ankle_angle_r	         mtp_angle_r	       hip_flexion_l	     hip_adduction_l	      hip_rotation_l	        knee_angle_l	       ankle_angle_l	         mtp_angle_l	    lumbar_extension	      lumbar_bending	     lumbar_rotation	 ercspn_r/activation	 intobl_r/activation	 extobl_r/activation	    abd_r/activation	    add_r/activation	hamstrings_r/activation	bifemsh_r/activation	glut_max_r/activation	iliopsoas_r/activation	rect_fem_r/activation	  vasti_r/activation	gastroc_r/activation	 soleus_r/activation	tib_ant_r/activation	 ercspn_l/activation	 intobl_l/activation	 extobl_l/activation	    abd_l/activation	    add_l/activation	hamstrings_l/activation	bifemsh_l/activation	glut_max_l/activation	iliopsoas_l/activation	rect_fem_l/activation	  vasti_l/activation	gastroc_l/activation	 soleus_l/activation	tib_ant_l/activation	
          0.55618732	         -4.19936699	          0.95469473	         -7.37363735	          0.67298666	          0.82240356	          0.01238643	        -16.57662061	         -0.91845210	         -0.03809263	         -5.12394132	          8.09768796	         26.24085003	         31.17038316	         -1.73808095	         -6.01775704	         -6.89188169	          3.37006834	          0.26613858	         -6.76639249	          0.75642108	          6.29093061	          0.06538003	          0.01000001	          0.01000005	          0.05435123	          0.01000009	          0.01425774	          0.23049885	          0.01308809	          0.37975860	          0.01000032	          0.01000003	          0.31417188	          0.25002520	          0.02538521	          0.12212973	          0.18401215	          0.01000011	          0.01000018	          0.11738301	          0.12612871	          0.25470252	          0.02692198	          0.10790991	          0.01000033	          0.01000008	          0.01000153	          0.01000005	          0.28155512	
          0.56731107	         -4.23836593	          0.91845499	         -7.48392170	          0.68854050	          0.82101638	          0.01225745	        -16.68679219	         -1.02390941	         -0.33094086	         -6.77496287	          7.40807268	         27.91741413	         31.08846347	         -1.62579992	         -5.78213542	         -8.45511006	          3.10393708	          0.26350569	         -6.58284877	          0.32874684	          6.59117271	          0.10502550	          0.01000003	          0.01000009	          0.04585071	          0.01000238	          0.01346173	          0.19444889	          0.01185403	          0.32036448	          0.01000031	          0.01000008	          0.28029329	          0.24045030	          0.02141497	          0.10302881	          0.15523272	          0.01000018	          0.01000001	          0.16454971	          0.10779782	          0.21488065	          0.06368068	          0.09103282	          0.01000016	          0.01000002	          0.01665764	          0.01185416	          0.30468148	
          0.57843482	         -4.26729364	          0.89503735	         -7.55339187	          0.70440773	          0.81982539	          0.01205047	        -16.68938187	         -1.14962410	         -0.65261102	         -8.65348375	          6.58356378	         29.54280873	         30.83534046	         -1.52383348	         -5.48278743	         -9.89607028	          2.70639812	          0.25443582	         -6.37629987	         -0.12147142	          6.86705661	          0.11723513	          0.01000001	          0.01000007	          0.03867966	          0.01000033	          0.01136022	          0.16403714	          0.01000014	          0.27025956	          0.01000024	          0.01000004	          0.23645548	          0.22528936	          0.01806568	          0.09448933	          0.13095437	          0.01000008	          0.03431092	          0.13881430	          0.09359612	          0.18127346	          0.09828546	          0.07679530	          0.01000005	          0.01000001	          0.01405240	          0.01000018	          0.38998282	
          0.58955856	         -4.28767997	          0.87059548	         -7.57605887	          0.72038296	          0.81895490	          0.01172114	        -16.51631856	         -1.28178814	         -1.00582961	        -10.84779412	          5.62079327	         31.03591568	         30.50066955	         -1.41768670	         -5.26193586	        -11.17648139	          2.18351711	          0.24189981	         -6.17159384	         -0.56945211	          7.11175032	          0.14598595	          0.01000001	          0.01000006	          0.03263017	          0.01000016	          0.01100857	          0.13838177	          0.01000008	          0.22799104	          0.01000034	          0.01000005	          0.19947387	          0.20820007	          0.01524021	          0.11155302	          0.11047313	          0.01000008	          0.08580279	          0.17843404	          0.07895776	          0.15292236	          0.11620949	          0.06478453	          0.01000008	          0.01000004	          0.01185462	          0.01000002	          0.44179244	
